<?xml version="1.0" encoding="iso-8859-1"?>
<!-- Generator: Adobe Illustrator 19.0.0, SVG Export Plug-In . SVG Version: 6.00 Build 0)  -->
<svg version="1.1" id="Layer_1" xmlns="http://www.w3.org/2000/svg" xmlns:xlink="http://www.w3.org/1999/xlink" x="0px" y="0px"
	 viewBox="0 0 473.931 473.931" style="enable-background:new 0 0 473.931 473.931;" xml:space="preserve">
<circle style="fill:#4ABC96;" cx="236.966" cy="236.966" r="236.966"/>
<path style="fill:#E84849;" d="M397.861,161.494l-93.87-90.3c-3.487-3.353-8.135-5.223-12.973-5.223H177.576
	c-4.838,0-9.485,1.875-12.969,5.223l-93.873,90.3c-3.667,3.525-5.74,8.4-5.74,13.485v120.586c0,5.085,2.073,9.957,5.74,13.485
	l93.877,90.304c3.484,3.353,8.131,5.224,12.969,5.224h113.439c4.838,0,9.485-1.875,12.973-5.224l93.873-90.304
	c3.663-3.525,5.736-8.397,5.736-13.485V174.98C403.601,169.898,401.528,165.023,397.861,161.494z"/>
<g>
	<path style="fill:#3D3B3B;" d="M320.766,335.265c-3.832,0-7.659-1.463-10.585-4.382L143.493,164.2
		c-5.845-5.845-5.845-15.323,0-21.167c5.848-5.845,15.323-5.845,21.167,0l166.688,166.684c5.845,5.845,5.845,15.323,0,21.167
		C328.426,333.802,324.598,335.265,320.766,335.265z"/>
	<path style="fill:#3D3B3B;" d="M154.078,335.265c-3.832,0-7.659-1.463-10.585-4.382c-5.845-5.848-5.845-15.323,0-21.167
		l166.688-166.684c5.848-5.845,15.326-5.841,21.167,0c5.845,5.848,5.845,15.323,0,21.167L164.664,330.884
		C161.738,333.802,157.91,335.265,154.078,335.265z"/>
</g>
<g>
</g>
<g>
</g>
<g>
</g>
<g>
</g>
<g>
</g>
<g>
</g>
<g>
</g>
<g>
</g>
<g>
</g>
<g>
</g>
<g>
</g>
<g>
</g>
<g>
</g>
<g>
</g>
<g>
</g>
</svg>
